<?xml version="1.0" standalone="no"?>
<!DOCTYPE svg PUBLIC "-//W3C//DTD SVG 20010904//EN"
 "http://www.w3.org/TR/2001/REC-SVG-20010904/DTD/svg10.dtd">
<svg version="1.0" xmlns="http://www.w3.org/2000/svg"
 width="2555.000000pt" height="2555.000000pt" viewBox="0 0 2555.000000 2555.000000"
 preserveAspectRatio="xMidYMid meet">
<metadata>
Created by potrace 1.11, written by Peter Selinger 2001-2013
</metadata>
<g transform="translate(0.000000,2555.000000) scale(0.100000,-0.100000)"
fill="#000000" stroke="none">
<path d="M5302 22069 c-69 -12 -100 -25 -218 -96 -208 -126 -812 -492 -881
-534 -156 -96 -252 -285 -253 -495 0 -244 136 -585 350 -874 37 -49 340 -593
806 -1447 1316 -2410 1374 -2515 1421 -2582 70 -98 154 -178 219 -208 57 -26
73 -26 150 4 9 3 26 -22 52 -79 21 -45 208 -386 415 -756 208 -370 377 -677
377 -682 0 -6 -501 -10 -1372 -10 -755 0 -2355 -3 -3555 -7 l-2181 -6 956
-766 957 -766 3 -1587 2 -1588 428 0 c235 0 667 -3 960 -7 l533 -6 352 -375
c194 -207 352 -379 352 -382 0 -4 -277 -290 -615 -635 -338 -345 -616 -630
-618 -634 -3 -8 3628 -24 3636 -16 4 4 31 626 32 743 l0 52 1758 0 1757 0 565
-1012 c311 -556 582 -1041 603 -1078 l37 -68 -124 -100 c-649 -523 -1664
-1051 -2937 -1528 -400 -149 -743 -259 -914 -293 -560 -109 -1109 -156 -1545
-132 -124 7 -238 14 -255 17 -52 8 95 -46 235 -86 165 -48 344 -84 521 -107
265 -34 1048 -18 1419 28 511 64 1371 352 2460 824 449 195 990 445 1334 617
87 44 162 76 166 71 4 -4 49 -84 100 -178 254 -466 560 -931 802 -1220 134
-160 165 -188 252 -224 106 -44 379 -112 606 -150 186 -31 213 -35 500 -71 85
-11 187 -28 227 -39 485 -132 1757 -166 3168 -86 270 16 436 41 645 100 480
135 812 368 968 680 89 179 110 307 93 562 -25 377 -87 639 -211 899 -82 170
-177 303 -324 450 -186 185 -362 299 -598 388 -185 69 -185 69 -587 51 -858
-37 -1026 -46 -1091 -60 -223 -47 -568 -85 -1060 -117 -227 -15 -1704 -16
-1915 -2 l-130 9 195 144 c224 166 292 220 485 386 314 270 712 645 1145 1079
l245 246 899 0 898 0 -6 -277 c-3 -153 -9 -338 -12 -411 l-6 -132 1857 0 1857
0 -108 112 c-59 62 -344 360 -633 661 -289 301 -526 552 -526 556 0 5 157 182
348 395 l348 386 950 0 949 0 0 88 c0 121 -28 2522 -33 2819 l-4 242 962 768
962 768 -2324 3 c-1277 1 -2323 5 -2323 8 0 3 31 94 69 204 254 726 418 1460
493 2206 18 183 22 280 22 594 0 575 -36 914 -139 1336 -198 805 -609 1445
-1222 1902 -338 253 -768 455 -1188 561 -185 46 -509 96 -723 111 -471 32
-1025 -13 -1542 -124 -1323 -285 -2539 -953 -3887 -2134 -509 -446 -1133
-1077 -1599 -1617 -271 -314 -649 -783 -640 -792 2 -2 185 93 406 212 l403
217 86 -85 c311 -305 864 -837 867 -834 2 2 -25 291 -61 643 -36 351 -65 640
-65 641 0 1 24 15 54 32 30 17 242 143 471 280 286 171 411 251 398 254 -10 3
-200 36 -423 73 -223 37 -409 70 -413 74 -10 9 244 242 399 367 508 407 1245
836 2072 1207 145 65 280 124 300 133 l37 15 -25 -28 c-14 -16 -122 -130 -240
-254 -118 -124 -246 -263 -283 -310 -404 -507 -651 -1199 -686 -1925 -6 -127
-5 -166 6 -190 12 -27 177 -232 673 -833 91 -111 172 -203 180 -206 49 -17
296 -28 532 -23 290 5 433 22 651 77 387 97 709 246 1024 477 167 121 268 210
428 374 208 214 363 414 537 692 146 233 339 637 426 892 8 22 11 -68 11 -326
l1 -356 420 -437 c230 -240 423 -437 427 -437 13 0 110 175 153 275 46 107 84
250 101 373 16 123 6 390 -20 518 -113 552 -485 1146 -1082 1730 -96 94 -242
225 -326 292 -109 88 -147 123 -135 127 9 3 78 17 152 33 170 34 393 39 528
10 372 -79 741 -296 1127 -661 33 -31 95 -87 139 -124 319 -273 536 -730 616
-1300 112 -800 -21 -1877 -384 -3107 -67 -228 -191 -604 -250 -760 l-34 -90
-444 0 c-243 0 -2313 4 -4598 8 -3146 7 -4158 11 -4166 20 -7 7 -314 554 -683
1217 l-672 1204 16 70 c36 157 11 337 -58 428 -32 42 -346 610 -1735 3133
-387 704 -725 1312 -750 1350 -173 262 -436 389 -710 344z m251 -516 c138
-153 207 -239 268 -338 53 -86 98 -210 82 -226 -5 -5 -52 -8 -103 -7 l-93 3
-13 39 c-24 68 -174 274 -283 389 -5 4 -209 -110 -455 -253 -246 -144 -449
-260 -451 -258 -8 9 -95 161 -95 166 0 8 1010 600 1026 601 5 1 58 -52 117
-116z m474 -868 c162 -188 260 -346 278 -447 l6 -38 -100 0 -99 0 -30 63 c-16
34 -52 94 -80 132 -60 85 -179 224 -196 231 -7 3 -209 -110 -450 -251 -241
-140 -442 -255 -446 -255 -14 0 -102 162 -93 171 4 4 235 141 513 303 l505
295 48 -47 c27 -26 92 -96 144 -157z m384 -662 c219 -229 366 -445 385 -565
l7 -38 -101 0 -100 0 -12 33 c-30 75 -219 332 -283 385 -12 10 -94 -34 -453
-244 -241 -140 -442 -256 -447 -257 -9 -2 -112 162 -105 168 14 12 1016 594
1024 594 6 1 45 -34 85 -76z m491 -880 c137 -151 207 -238 269 -338 53 -86 98
-210 82 -226 -5 -5 -52 -8 -103 -7 l-93 3 -13 39 c-30 84 -268 396 -297 388
-7 -2 -209 -118 -450 -259 -241 -140 -440 -253 -442 -251 -8 9 -95 161 -95
166 0 8 1010 601 1025 601 6 1 58 -52 117 -116z m394 -810 c237 -258 361 -441
380 -560 l7 -43 -101 0 -100 0 -12 36 c-7 20 -38 75 -70 122 -61 91 -216 278
-228 275 -4 -1 -205 -117 -446 -257 -241 -141 -441 -256 -445 -256 -12 0 -101
164 -93 172 10 10 1015 597 1022 598 3 0 42 -39 86 -87z m577 -951 c159 -184
266 -357 283 -454 l6 -38 -99 0 -100 0 -36 73 c-64 127 -255 364 -286 352 -9
-3 -208 -118 -443 -256 -235 -137 -432 -249 -437 -249 -4 0 -30 37 -56 82
l-48 82 23 16 c13 8 244 144 514 302 l491 286 58 -56 c32 -32 91 -94 130 -140z
m685 -1731 c336 -615 612 -1121 612 -1124 0 -6 -171 -100 -175 -95 -1 2 -260
473 -575 1048 -315 575 -592 1080 -616 1122 l-42 78 81 45 c45 24 87 45 92 44
6 0 286 -503 623 -1118z m-3878 -2896 l0 -445 425 0 425 0 0 -515 0 -515 -425
0 -425 0 0 -445 0 -445 -495 0 -495 0 0 445 0 445 -427 2 -428 3 -3 513 -2
512 430 0 430 0 0 445 0 445 495 0 495 0 0 -445z m17200 0 l0 -445 425 0 425
0 0 -515 0 -515 -425 0 -425 0 0 -445 0 -445 -495 0 -495 0 0 445 0 445 -427
2 -428 3 -3 513 -2 512 430 0 430 0 0 445 0 445 495 0 495 0 0 -445z m-15090
196 c47 -12 93 -24 103 -27 12 -4 17 0 17 15 0 20 5 21 150 21 132 0 150 -2
158 -17 5 -10 71 -282 148 -605 76 -322 140 -585 141 -585 1 1 65 270 143 597
78 327 144 598 147 603 2 4 72 7 154 7 146 0 150 -1 159 -22 5 -13 71 -283
146 -600 76 -318 140 -576 142 -573 2 2 68 271 146 597 l141 593 149 3 c82 1
153 -1 157 -5 4 -5 -86 -393 -199 -863 l-207 -855 -171 -3 -171 -2 -67 287
c-130 559 -225 958 -225 953 -1 -5 -255 -1088 -286 -1217 -5 -23 -7 -23 -175
-23 l-169 0 -10 38 c-8 27 -269 1112 -306 1268 -5 24 -151 96 -270 134 -98 31
-273 39 -359 16 -72 -20 -132 -64 -152 -112 -19 -46 -18 -132 4 -174 28 -58
63 -71 382 -145 324 -75 480 -244 480 -522 0 -329 -203 -511 -590 -529 -169
-9 -349 23 -543 96 l-57 21 0 170 c0 114 4 169 11 169 6 0 41 -18 79 -41 136
-81 327 -139 454 -139 111 0 235 39 278 87 50 55 64 182 28 253 -36 71 -103
103 -303 145 -339 71 -479 168 -532 370 -18 70 -20 182 -4 257 34 159 154 293
315 349 97 34 132 38 309 34 131 -2 190 -8 255 -24z m3551 13 c52 -9 136 -29
187 -45 l92 -30 0 -164 0 -165 -57 26 c-198 91 -286 114 -426 114 -205 0 -300
-69 -301 -218 0 -114 55 -150 312 -207 240 -52 337 -93 426 -180 95 -92 137
-196 141 -350 l3 -100 110 -56 c156 -80 247 -103 397 -103 145 0 212 21 269
84 75 83 74 214 -3 291 -44 44 -116 72 -275 105 -369 78 -507 190 -538 441
-20 161 27 309 132 414 109 110 252 159 460 159 146 0 263 -18 403 -61 l97
-30 0 -164 c0 -91 -2 -165 -5 -165 -3 0 -40 17 -83 39 -42 21 -115 51 -162 67
-77 25 -99 28 -225 29 -134 0 -142 -1 -198 -28 -82 -41 -111 -86 -111 -177 -1
-54 3 -75 19 -97 34 -46 118 -80 295 -119 90 -19 192 -46 226 -59 171 -64 287
-188 325 -345 16 -66 16 -217 0 -284 -42 -178 -175 -303 -380 -358 -60 -16
-109 -21 -231 -22 -179 -1 -273 15 -445 73 l-110 37 -3 93 -3 93 -38 -59 c-70
-108 -169 -174 -320 -215 -60 -16 -109 -21 -231 -22 -179 -1 -273 15 -445 73
l-110 37 -3 172 c-1 95 -1 172 1 172 1 0 59 -28 127 -63 172 -87 262 -111 415
-111 134 0 204 19 259 70 81 76 87 222 13 302 -32 35 -102 67 -182 86 -312 71
-367 89 -447 144 -136 93 -191 207 -191 392 1 244 139 415 387 480 92 24 295
26 427 4z m4338 -19 c182 -62 338 -205 420 -386 l28 -62 27 58 c73 161 221
304 381 369 238 96 580 69 795 -63 l49 -30 3 62 3 62 150 0 150 0 3 -308 2
-308 317 310 317 311 757 0 757 0 163 -252 c89 -139 181 -281 204 -315 l42
-63 202 315 203 315 169 0 c93 0 169 -2 169 -4 0 -3 -133 -210 -295 -460
l-295 -455 0 -405 0 -406 -155 0 -155 0 -1 408 -1 407 -202 310 -202 310 -352
3 -352 2 0 -190 0 -190 370 0 370 0 0 -145 0 -145 -370 0 -370 0 0 -240 0
-240 395 0 395 0 0 -145 0 -145 -699 0 -699 0 -341 355 -341 354 0 -354 0
-355 -155 0 -155 0 0 65 0 65 -52 -34 c-64 -40 -162 -80 -254 -103 -104 -26
-333 -23 -438 6 -216 58 -373 186 -473 385 l-35 70 -44 -85 c-77 -149 -180
-254 -317 -322 -186 -93 -452 -100 -651 -17 -252 106 -423 368 -455 697 -6 63
-9 -28 -10 -319 l-1 -408 -155 0 -155 0 0 385 0 385 -335 0 -335 0 0 -385 0
-386 -152 3 -153 3 0 860 0 860 153 3 152 3 0 -336 0 -335 335 0 335 0 2 333
3 332 150 0 150 0 5 -405 c3 -223 6 -380 8 -350 4 84 36 226 71 314 89 223
271 388 491 446 62 17 100 19 225 17 134 -3 159 -7 234 -32z m-5359 -850 l0
-866 -152 3 -153 3 -3 850 c-1 468 0 856 3 863 3 9 44 12 155 12 l150 0 0
-865z m9130 -2480 l0 -765 -5845 0 -5845 0 0 765 0 765 5845 0 5845 0 0 -765z
m-11910 -578 l0 -582 175 -115 c96 -63 234 -153 305 -200 l131 -85 -1002 -3
c-551 -1 -1004 0 -1007 2 -2 3 131 179 296 392 l301 388 -48 60 c-159 200
-543 701 -548 712 -4 12 107 14 696 14 l701 0 0 -583z m13920 578 c0 -3 -162
-175 -361 -381 -199 -206 -359 -380 -356 -387 3 -6 165 -187 361 -402 l356
-390 -524 -3 c-289 -1 -764 -1 -1056 0 l-531 3 325 219 326 220 0 563 0 563
730 0 c402 0 730 -2 730 -5z m-7621 -1900 c82 -173 296 -583 419 -800 423
-751 775 -1200 1033 -1320 63 -29 147 -33 206 -10 34 13 92 13 513 -3 l475
-17 57 -115 c31 -63 84 -172 117 -242 l60 -128 -723 0 -723 0 -79 51 c-97 63
-325 290 -440 439 -178 230 -376 546 -558 887 -77 143 -676 1375 -676 1389 0
2 58 4 128 4 l128 0 63 -135z m5586 -1571 c520 -70 872 -353 1031 -831 58
-172 75 -275 80 -488 l5 -190 -49 115 c-190 449 -416 725 -705 865 -123 59
-227 85 -367 92 -96 5 -254 -8 -267 -21 -2 -2 166 -377 372 -835 206 -458 375
-836 375 -840 0 -8 -229 -116 -234 -109 -2 1 -162 356 -356 788 -363 806 -374
831 -554 1205 -75 156 -102 221 -93 226 19 10 188 31 322 39 149 8 297 3 440
-16z m-1820 -1150 c242 -537 441 -980 443 -983 4 -10 -231 -112 -239 -103 -14
15 -872 1928 -873 1946 -1 15 23 30 104 67 58 26 110 48 115 48 6 0 208 -439
450 -975z m887 0 c240 -533 437 -974 438 -980 0 -11 -228 -120 -234 -113 -1 2
-200 443 -441 979 -241 536 -440 978 -441 981 -4 8 218 110 231 106 5 -2 206
-440 447 -973z"/>
<path d="M17290 12522 c-206 -202 -375 -370 -375 -374 0 -5 169 -184 375 -400
l375 -392 3 381 c1 210 1 555 0 767 l-3 385 -375 -367z"/>
<path d="M14289 12685 c-146 -47 -252 -186 -296 -390 -20 -95 -20 -307 1 -410
37 -178 143 -325 273 -376 84 -33 233 -33 318 1 116 45 216 176 261 340 26 93
27 387 1 480 -42 158 -132 282 -244 337 -51 24 -71 28 -163 30 -71 2 -120 -2
-151 -12z"/>
<path d="M15733 12685 c-170 -46 -271 -156 -325 -354 -31 -110 -30 -371 0
-484 57 -211 186 -330 386 -358 190 -26 370 33 516 168 l70 65 0 373 0 373
-52 47 c-102 92 -211 152 -316 174 -72 15 -215 13 -279 -4z"/>
<path d="M9770 9685 l0 -545 130 0 130 0 0 265 0 265 440 0 440 0 0 50 0 50
-440 0 -440 0 0 175 0 175 485 0 485 0 0 55 0 55 -615 0 -615 0 0 -545z"/>
<path d="M12108 9698 c-222 -293 -408 -539 -412 -545 -6 -10 22 -13 126 -13
l133 0 99 140 98 140 517 -1 516 0 98 -140 97 -139 131 0 c121 0 129 1 120 18
-6 9 -190 253 -409 542 l-399 525 -155 3 -155 2 -405 -532z m785 112 c112
-151 202 -278 200 -282 -7 -12 -853 -10 -853 2 0 6 96 141 213 301 188 257
213 288 224 272 7 -10 104 -142 216 -293z"/>
<path d="M14020 9685 l0 -545 125 0 125 0 2 477 3 478 503 -478 503 -477 190
0 189 0 -2 543 -3 542 -122 3 -123 3 -2 -482 -3 -483 -508 482 -508 482 -184
0 -185 0 0 -545z"/>
<path d="M10872 18851 c-155 -314 -284 -571 -286 -571 -2 0 -195 31 -428 70
-232 38 -495 81 -583 95 -88 14 -173 28 -189 31 -23 5 61 -88 400 -440 236
-245 431 -446 435 -446 3 0 50 66 104 148 171 257 516 753 772 1108 l123 172
-26 183 c-14 101 -28 192 -32 203 -6 13 -83 -134 -290 -553z"/>
<path d="M17447 17499 c-59 -82 -110 -155 -113 -162 -2 -7 73 -82 167 -167
231 -208 556 -533 654 -653 44 -53 83 -97 87 -97 4 0 35 52 69 117 l62 116
-42 40 c-23 21 -205 242 -403 491 -198 248 -364 454 -367 458 -4 4 -55 -60
-114 -143z"/>
<path d="M16322 16145 c-62 -53 -112 -99 -112 -102 0 -8 831 -893 839 -893 8
0 225 143 266 175 19 15 0 35 -431 466 l-451 451 -111 -97z"/>
<path d="M15895 15898 c-54 -36 -268 -135 -350 -161 -232 -75 -398 -100 -665
-100 -159 0 -237 5 -345 22 -77 11 -151 24 -164 28 -18 4 41 -72 210 -274
l234 -281 85 -40 c475 -226 993 -295 1477 -197 101 21 280 70 291 80 4 4 -726
940 -736 942 -4 1 -20 -8 -37 -19z"/>
<path d="M9535 6968 c-32 -101 -62 -198 -67 -215 l-9 -33 -217 -1 c-119 0
-237 -4 -261 -7 l-43 -7 206 -159 c117 -90 205 -165 202 -172 -15 -39 -138
-466 -135 -469 3 -2 204 137 359 251 l46 33 189 -140 c104 -76 190 -139 191
-139 3 0 4 -3 -80 273 -32 103 -56 193 -53 200 3 8 94 85 202 173 l196 159
-253 3 -253 2 -75 215 c-41 118 -78 215 -81 215 -3 0 -32 -82 -64 -182z"/>
<path d="M7573 6128 c-11 -29 -37 -101 -57 -160 l-38 -108 -62 -1 c-33 -1
-119 -4 -190 -8 l-130 -6 156 -137 155 -137 -34 -157 c-19 -86 -32 -158 -30
-161 3 -2 64 43 137 101 l132 105 121 -91 c67 -50 127 -95 134 -100 6 -5 -13
61 -43 147 -30 86 -54 160 -54 164 0 5 70 69 155 142 l154 134 -193 3 -193 2
-48 158 c-26 86 -49 158 -50 160 -2 2 -12 -21 -22 -50z"/>
<path d="M5619 5998 l-44 -123 -138 -5 -137 -5 115 -99 c89 -76 114 -103 110
-117 -13 -41 -55 -195 -55 -202 0 -5 48 29 106 73 l105 82 42 -33 c23 -18 62
-49 86 -68 25 -20 42 -29 40 -21 -3 8 -19 53 -34 99 l-29 83 44 42 c25 22 77
69 115 103 l70 62 -141 1 -141 0 -33 123 c-18 67 -33 123 -35 125 -1 1 -22
-53 -46 -120z"/>
</g>
</svg>
