<svg id="Layer_1" data-name="Layer 1" xmlns="http://www.w3.org/2000/svg" viewBox="0 0 2554.69 1905"><defs><style>.cls-1,.cls-19,.cls-7,.cls-8{fill:#f90b0b;}.cls-1,.cls-19,.cls-2,.cls-5,.cls-6,.cls-7,.cls-8,.cls-9{stroke:#fff;stroke-miterlimit:10;}.cls-1{stroke-width:22px;}.cls-2,.cls-3,.cls-6{fill:none;}.cls-2,.cls-7{stroke-width:20px;}.cls-4,.cls-5,.cls-9{fill:#fff;}.cls-5,.cls-6{stroke-width:26px;}.cls-8{stroke-width:15px;}.cls-9{font-size:222.39px;stroke-width:10px;font-family:MarkerFelt-Wide, Marker Felt;}.cls-10{letter-spacing:0.04em;}.cls-11{letter-spacing:0.03em;}.cls-12{letter-spacing:0.03em;}.cls-13{letter-spacing:0.05em;}.cls-14{letter-spacing:0.03em;}.cls-15{letter-spacing:0.04em;}.cls-16{letter-spacing:0.03em;}.cls-17{letter-spacing:0.03em;}.cls-18{font-size:111.2px;letter-spacing:0em;fill:#000;stroke-miterlimit:4;}.cls-19{font-size:152.56px;stroke-width:2px;font-family:Chalkduster;letter-spacing:-0.03em;}.cls-20{letter-spacing:0em;}</style></defs><title>logo</title><path class="cls-1" d="M1257,608.49l-127.27,68.3,69.9-135.59-107-111.48,147.53,24.11,69.42-140.11,11.57,81.35s-149,204.89-156.2,241c0,0,178.86-246.56,412.2-381.14s418.47-88.38,418.47-88.38,279.62,32.14,287.33,369.59c0,0,11.57,130.56-54,315.36H2711L2497,1022.27l3.85,321.39H2304.1l-59.78,66.28,138.85,144.63H1974.34l1.93-82.36H1812.36s-108,112.49-179.35,164.71c0,0,185.13,8,285.41-14.06l138.85-6s140.77,20.08,146.56,194.83c0,0,21.21,114.5-158.13,140.61,0,0-258.41,18.08-352.91-10,0,0-129.2-12.06-142.7-36.16,0,0-42.42-42.18-98.35-146.63,0,0-279.62,140.61-401.11,149.64s-203.93,13.56-352.9-99.42c0,0,78.1,100.93,338.44,45.19,0,0,241.53-73.82,370.25-180.78l-112.81-201.87H959.51l-2.89,79.85-402.08-1.51,136-138.6-60.75-64.78-198.14-1.5V1023.28L219,853.05l724.6-1.51-66.53-119-4.34-9S851,731,823.56,684.32L613.84,300.17S532.85,203.75,595,145l107-64.78s62.19-28.63,104.13,48.21,237.2,430.85,237.2,430.85,20.25,19.59,10.12,58.75l130.17,233.51,906.36,2s154.27-397.71-3.86-514.22c0,0-77.13-84.36-154.27-68.29,0,0,223.7,176.76,115.7,333.44,0,0-50.14,137.3-165.84,192.83s-219.84-8-219.84-8S1499.31,595.66,1496.1,588.41c0,0-7.72-140.61,88.7-241,0,0-135,60.26-212.12,132.57l95,16.07L1353.39,564.3,1368.82,717Z" transform="translate(-187.74 -64)"/><path class="cls-2" d="M673.32,273.93l96.42-56.24s38.57,39,38.57,56.24" transform="translate(-187.74 -64)"/><path class="cls-2" d="M722.65,352.34l96.42-56.25s38.57,39,38.57,56.25" transform="translate(-187.74 -64)"/><path class="cls-2" d="M810.54,520.78,907,464.54s38.57,39,38.57,56.24" transform="translate(-187.74 -64)"/><path class="cls-2" d="M768.35,436.56l96.42-56.25s38.56,39,38.56,56.25" transform="translate(-187.74 -64)"/><path class="cls-2" d="M858.42,605l96.42-56.24s38.57,39,38.57,56.24" transform="translate(-187.74 -64)"/><line class="cls-2" x1="785.01" y1="557.33" x2="908.43" y2="782.32"/><polygon class="cls-3" points="1344.26 1409.02 1452.25 1409.02 1385.27 1481.33 1344.26 1409.02"/><path class="cls-4" d="M1439.44,1509.18H1465s121,261.12,175,225l96.42,3.43,23.14,48.79h-142.7s-54-16.07-135-188.81Z" transform="translate(-187.74 -64)"/><line class="cls-5" x1="1604.11" y1="1638.01" x2="1692.82" y2="1834.85"/><line class="cls-6" x1="1781.52" y1="1834.85" x2="1692.82" y2="1638.01"/><line class="cls-6" x1="1789.72" y1="1638.01" x2="1878.43" y2="1834.85"/><path class="cls-4" d="M2141.38,1830.56s19.91-183.09-189-148.64l25.07,52.23S2083.53,1673.89,2141.38,1830.56Z" transform="translate(-187.74 -64)"/><rect class="cls-4" x="675.83" y="1192.09" width="1169.11" height="152.66"/><polygon class="cls-4" points="1899.64 1268.41 2046.2 1268.41 1972.92 1344.74 2046.2 1425.09 1834.07 1425.09 1899.64 1380.9 1899.64 1268.41"/><polygon class="cls-4" points="513.11 1268.41 654.17 1268.41 654.17 1384.92 715.59 1425.09 513.11 1425.09 573.83 1346.75 513.11 1268.41"/><path class="cls-4" d="M1954.58,436.56S1866.26,737.7,1575.2,686.9l27.13,32.55S1700,753.92,1781,701.7l81.47,104.41,18.81-8,18.63-10L1808,689.65l23.14-20.09,98,98.63s79.27-87.5,87.33-101.43-96.59-105.67-96.59-105.67L1943,529l73.89,92.38,16.4,14.86,13.84-30.91-92.56-96.41Z" transform="translate(-187.74 -64)"/><path class="cls-2" d="M633.36,195.52l96.42-56.24s38.57,39,38.57,56.24" transform="translate(-187.74 -64)"/><polygon class="cls-7" points="938.32 1547.62 959.29 1481.33 982.44 1547.62 1055.47 1547.62 996.9 1595.07 1018.59 1665.88 961.46 1623.69 902.16 1665.88 923.14 1595.07 863.84 1549.12 938.32 1547.62"/><polygon class="cls-8" points="742.35 1636.5 759.7 1586.79 774.89 1636.5 828.4 1636.5 785.38 1674.16 803.09 1725.38 761.15 1693.75 721.38 1725.38 732.22 1675.67 690.29 1638.76 742.35 1636.5"/><polygon class="cls-8" points="552.16 1634.99 567.34 1591.31 578.91 1634.99 622.3 1634.99 587.23 1665.88 601.33 1705.8 568.07 1679.43 533.36 1705.8 544.2 1665.88 509.49 1635.75 552.16 1634.99"/><text class="cls-9" transform="translate(580.61 1101.69) scale(0.96 1)">S<tspan class="cls-10" x="113.42" y="0">W</tspan><tspan class="cls-11" x="317.35" y="0">I</tspan><tspan class="cls-12" x="377.61" y="0">S</tspan><tspan x="497.25" y="0">S </tspan><tspan class="cls-13" x="666.27" y="0">H</tspan><tspan class="cls-14" x="809.93" y="0">O</tspan><tspan class="cls-15" x="956.48" y="0">C</tspan><tspan class="cls-16" x="1084.58" y="0">K</tspan><tspan class="cls-17" x="1218.9" y="0">E</tspan><tspan x="1331.65" y="0">Y</tspan><tspan class="cls-18" x="1476.2" y="0"> </tspan></text><rect class="cls-4" x="368.87" y="909.83" width="98.83" height="280.79"/><rect class="cls-4" x="554.56" y="979.44" width="102.94" height="269.57" transform="translate(1532.51 444.2) rotate(90)"/><rect class="cls-4" x="2088.69" y="909.83" width="98.83" height="280.79"/><rect class="cls-4" x="2274.38" y="979.44" width="102.94" height="269.57" transform="translate(3252.33 -1275.63) rotate(90)"/><text class="cls-19" transform="translate(945.19 1317.46) scale(1.99 1)">F<tspan class="cls-20" x="109.24" y="0">AN</tspan></text></svg>